<svg width="40" height="40" viewBox="0 0 40 40" fill="none" xmlns="http://www.w3.org/2000/svg">
<path d="M15.4892 35.8993C6.61596 34.0398 0 26.8133 0 18.1818C0 8.14027 8.9543 0 20 0C31.0456 0 40 8.14027 40 18.1818C40 26.8133 33.384 34.0398 24.5108 35.8993L20 40L15.4892 35.8993ZM10.0235 29.5576C11.8489 30.8836 14.0087 31.8573 16.3878 32.3558L17.5062 32.5902L20 34.8575L22.4938 32.5902L23.6122 32.3558C26.149 31.8242 28.4366 30.7525 30.3352 29.2893C27.793 26.9233 24.245 25.4545 20.3194 25.4545C16.2476 25.4545 12.5817 27.0349 10.0235 29.5576ZM7.23124 26.948C10.5129 23.7893 15.1629 21.8182 20.3194 21.8182C25.288 21.8182 29.7862 23.6482 33.0432 26.6073C34.9126 24.2155 36 21.2984 36 18.1818C36 10.1486 28.8366 3.63636 20 3.63636C11.1634 3.63636 4 10.1486 4 18.1818C4 21.448 5.19416 24.4949 7.23124 26.948ZM20 20C15.5817 20 12 16.7438 12 12.7273C12 8.71065 15.5817 5.45455 20 5.45455C24.4182 5.45455 28 8.71065 28 12.7273C28 16.7438 24.4182 20 20 20ZM20 16.3636C22.2092 16.3636 24 14.7356 24 12.7273C24 10.719 22.2092 9.09091 20 9.09091C17.7908 9.09091 16 10.719 16 12.7273C16 14.7356 17.7908 16.3636 20 16.3636Z" fill="black"/>
</svg>
